<?xml version="1.0" encoding="UTF-8"?>
<svg version="1.1" xmlns="http://www.w3.org/2000/svg" width="313" height="308">
<path d="M0 0 C9.98435717 9.37924461 13.52524404 27.18350817 14.15821838 40.27146912 C14.17376266 41.39287796 14.18930695 42.5142868 14.20532227 43.66967773 C14.22526749 44.95047714 14.24521271 46.23127655 14.26576233 47.55088806 C14.28274013 48.92845544 14.29961917 50.30602404 14.31640625 51.68359375 C14.33700688 53.1084906 14.3580041 54.53338177 14.37937927 55.95826721 C14.43427921 59.68833786 14.48382838 63.41846069 14.53222656 67.14862061 C14.58267753 70.96305931 14.63823978 74.77742328 14.69335938 78.59179688 C14.80054792 86.06113609 14.90160522 93.53053882 15 101 C20.28 103.64 25.56 106.28 31 109 C30.95875 107.5975 30.9175 106.195 30.875 104.75 C30.875 89.125 30.875 89.125 35 85 C42.22576468 83.03389072 51.14077446 82.84846394 58 86 C60.88450654 88.88450654 59.94297837 96.05827961 60 100 C59.85110468 108.00608821 59.43108691 116.00485291 59 124 C73.62143651 131.90069399 88.28287237 139.71139243 103.0625 147.3125 C103.71707184 147.64916687 104.37164368 147.98583374 105.04605103 148.33270264 C106.34910802 149.00282315 107.65217288 149.67292836 108.95524597 150.34301758 C109.58489761 150.66681396 110.21454926 150.99061035 110.86328125 151.32421875 C111.48112991 151.64189209 112.09897858 151.95956543 112.73554993 152.28686523 C120.22737637 156.14162987 127.68861353 160.05289077 135.12695312 164.00976562 C136.90656998 164.95060582 138.69525482 165.87423455 140.484375 166.796875 C141.47953125 167.31765625 142.4746875 167.8384375 143.5 168.375 C144.72203125 169.00535156 144.72203125 169.00535156 145.96875 169.6484375 C149.53379135 172.02056117 150.8266854 174.22008429 151.75 178.375 C151.98800139 181.82602008 151.73867591 184.63492085 151 188 C143.64013371 187.42275559 136.99327878 185.29344795 130 183 C128.89205078 182.64421875 128.89205078 182.64421875 127.76171875 182.28125 C119.78862341 179.68031793 111.90339631 176.80384553 104 174 C104 175.98 104 177.96 104 180 C102.68 180 101.36 180 100 180 C98.64560332 177.29120665 98.93498549 174.99066732 99 172 C97.47935206 171.54105193 95.95847052 171.08287786 94.4375 170.625 C93.51710937 170.34785156 92.59671875 170.07070312 91.6484375 169.78515625 C89.62704772 169.18589468 87.59655783 168.61724304 85.5625 168.0625 C80.62833651 166.59090738 75.8236562 164.79687736 71 163 C70.67 164.98 70.34 166.96 70 169 C69.01 169 68.02 169 67 169 C66.835 167.783125 66.67 166.56625 66.5 165.3125 C65.59812802 162.73506891 64.75084903 161.38131227 62.28759766 160.13037109 C57.63385376 158.37066379 52.83335325 157.15689008 48 156 C48 157.32 48 158.64 48 160 C46.68 160 45.36 160 44 160 C44 158.68 44 157.36 44 156 C43.34 156 42.68 156 42 156 C41.9175 157.11375 41.835 158.2275 41.75 159.375 C41 163 41 163 38.9375 164.4375 C38.298125 164.623125 37.65875 164.80875 37 165 C34.9375 162.1875 34.9375 162.1875 33 159 C33.33 158.01 33.66 157.02 34 156 C27.07 156 20.14 156 13 156 C13.02356567 158.18665283 13.02356567 158.18665283 13.04760742 160.41748047 C13.36707076 192.94329398 13.23912528 224.82208616 8 257 C9.10214844 257.65484375 10.20429688 258.3096875 11.33984375 258.984375 C49.23274164 281.69822492 49.23274164 281.69822492 52 290 C52.06802967 291.72795352 52.08495645 293.45835365 52.0625 295.1875 C52.05347656 296.08855469 52.04445312 296.98960937 52.03515625 297.91796875 C52.01775391 298.94857422 52.01775391 298.94857422 52 300 C44.77569193 299.37474706 37.96795179 297.93556582 30.9375 296.1875 C29.8451001 295.92050293 28.7527002 295.65350586 27.62719727 295.37841797 C24.41654137 294.59189359 21.20797124 293.7973954 18 293 C17.10410156 292.77812012 16.20820313 292.55624023 15.28515625 292.32763672 C10.85395323 291.22946141 6.42544471 290.1212006 2 289 C1.89042969 289.556875 1.78085938 290.11375 1.66796875 290.6875 C0.55724752 296.03341031 -0.97225526 300.93063816 -3 306 C-4.32 306 -5.64 306 -7 306 C-7.65601744 304.48353179 -8.2992664 302.96153825 -8.9375 301.4375 C-9.29714844 300.59058594 -9.65679687 299.74367188 -10.02734375 298.87109375 C-11.1374509 295.59427144 -11.59726139 292.42963722 -12 289 C-12.68924561 289.16604736 -13.37849121 289.33209473 -14.08862305 289.50317383 C-37.88913869 295.23414239 -37.88913869 295.23414239 -47.46875 297.41015625 C-49.84510708 297.96390613 -52.2026927 298.56762308 -54.5625 299.1875 C-58 300 -58 300 -62 300 C-62.08187055 298.43839515 -62.13958275 296.87551517 -62.1875 295.3125 C-62.23970703 294.00732422 -62.23970703 294.00732422 -62.29296875 292.67578125 C-61.84220165 288.55877507 -60.06911232 286.05103008 -57.15234375 283.18359375 C-44.82046654 273.46163765 -31.44890975 265.07885038 -18 257 C-18.144375 255.783125 -18.28875 254.56625 -18.4375 253.3125 C-18.55931641 252.28576172 -18.55931641 252.28576172 -18.68359375 251.23828125 C-18.89730776 249.72645252 -19.16267494 248.22116757 -19.47485352 246.7265625 C-22.90504228 228.91700966 -23.29233045 210.20826394 -23.75 192.125 C-23.77296143 191.29535736 -23.79592285 190.46571472 -23.81958008 189.6109314 C-24.1179193 178.33507768 -23.79440288 167.25404083 -23 156 C-29.93 156 -36.86 156 -44 156 C-44.495 159.96 -44.495 159.96 -45 164 C-46.32 164.33 -47.64 164.66 -49 165 C-51.29379749 161.55930376 -52 160.27709699 -52 156 C-52.66 156 -53.32 156 -54 156 C-54.33 157.65 -54.66 159.3 -55 161 C-55.99 160.67 -56.98 160.34 -58 160 C-58 158.68 -58 157.36 -58 156 C-67.78935588 157.78987306 -67.78935588 157.78987306 -75.625 163.078125 C-76.4357938 165.48233295 -76.4357938 165.48233295 -77 169 C-77.99 169.33 -78.98 169.66 -80 170 C-80.495 166.535 -80.495 166.535 -81 163 C-84.82423937 164.06805488 -88.62992525 165.18579872 -92.42578125 166.35083008 C-94.35155825 166.93044457 -96.2891304 167.47038924 -98.2265625 168.00976562 C-104.79287397 169.73676414 -104.79287397 169.73676414 -109.29785156 174.32470703 C-109.80777966 176.61938346 -110.05436643 178.65424853 -110 181 C-110.99 181 -111.98 181 -113 181 C-113.495 177.535 -113.495 177.535 -114 174 C-114.86165771 174.28721924 -115.72331543 174.57443848 -116.61108398 174.87036133 C-132.54492187 180.18164062 -132.54492187 180.18164062 -134.56474304 180.85490417 C-135.88914287 181.29637754 -137.21353461 181.73787517 -138.53791809 182.17939758 C-141.31179526 183.10412617 -144.08577338 184.0285472 -146.86010742 184.9519043 C-150.05776541 186.01627085 -153.25203084 187.0870652 -156.4375 188.1875 C-159 189 -159 189 -161 189 C-161.16292254 186.60141818 -161.28117547 184.21396107 -161.375 181.8125 C-161.42527344 181.13896484 -161.47554687 180.46542969 -161.52734375 179.77148438 C-161.5859375 177.76953125 -161.5859375 177.76953125 -161 174 C-157.00931342 170.13562484 -152.77199675 167.63657779 -147.7578125 165.265625 C-146.33193699 164.57182561 -144.90649755 163.87712944 -143.48144531 163.18164062 C-142.37645691 162.64615601 -142.37645691 162.64615601 -141.24914551 162.09985352 C-137.51510423 160.27387187 -133.81655762 158.37937237 -130.1171875 156.484375 C-128.99365623 155.90981064 -128.99365623 155.90981064 -127.84742737 155.32363892 C-125.52255022 154.13385348 -123.19863083 152.94221747 -120.875 151.75 C-120.07105804 151.33780212 -119.26711609 150.92560425 -118.43881226 150.50091553 C-107.82178454 145.05280958 -97.25422357 139.53724164 -86.82177734 133.74121094 C-71.08166918 125 -71.08166918 125 -68 125 C-68.07001221 124.44634766 -68.14002441 123.89269531 -68.2121582 123.32226562 C-69.08202785 115.71109852 -69.18352959 108.15494323 -69.1875 100.5 C-69.19974609 99.22640625 -69.21199219 97.9528125 -69.22460938 96.640625 C-69.22654297 95.42890625 -69.22847656 94.2171875 -69.23046875 92.96875 C-69.23457764 91.86982422 -69.23868652 90.77089844 -69.24291992 89.63867188 C-69 87 -69 87 -67 85 C-63.17299616 83.9421838 -59.45607528 83.83560792 -55.5 83.8125 C-53.84484375 83.79123047 -53.84484375 83.79123047 -52.15625 83.76953125 C-48.9077725 84.00673443 -46.80966869 84.35278227 -44 86 C-41.32329732 90.29421932 -41.56209371 95.39175802 -41.375 100.3125 C-41.25125 103.179375 -41.1275 106.04625 -41 109 C-35.72 106.36 -30.44 103.72 -25 101 C-24.96241577 98.62651367 -24.96241577 98.62651367 -24.92407227 96.20507812 C-24.82899997 90.26344438 -24.72903441 84.32190082 -24.62768555 78.38037109 C-24.58471009 75.82212452 -24.54301375 73.26385608 -24.50268555 70.70556641 C-23.86708246 30.54486747 -23.86708246 30.54486747 -20.75 21.0625 C-20.52965088 20.35649658 -20.30930176 19.65049316 -20.08227539 18.9230957 C-17.7894897 11.86079487 -14.95151401 4.76121121 -9 0 C-5.39297148 -1.20234284 -3.64185324 -1.0405295 0 0 Z " fill="#242423" transform="translate(161,2)"/>
<path d="M0 0 C1.32 0 2.64 0 4 0 C4 1.32 4 2.64 4 4 C4.66 4 5.32 4 6 4 C6 2.68 6 1.36 6 0 C17 0 28 0 39 0 C39 17.49 39 34.98 39 53 C38.67 53 38.34 53 38 53 C37.8290523 48.32704187 37.66895166 43.65386574 37.51782227 38.98022461 C37.46528208 37.39874895 37.41005282 35.81735977 37.35180664 34.23608398 C36.94284958 23.06622193 37.19867254 12.15329105 38 1 C31.07 1 24.14 1 17 1 C16.67 3.64 16.34 6.28 16 9 C14.68 9.33 13.36 9.66 12 10 C9.70620251 6.55930376 9 5.27709699 9 1 C8.34 1 7.68 1 7 1 C6.67 2.65 6.34 4.3 6 6 C5.01 5.67 4.02 5.34 3 5 C3 3.68 3 2.36 3 1 C2.01 0.67 1.02 0.34 0 0 Z " fill="#A6A6A5" transform="translate(100,157)"/>
<path d="M0 0 C0.33 0 0.66 0 1 0 C1.14711551 4.11923431 1.24144103 7.21830477 0.01367188 11.19335938 C-1.66363214 17.80329025 -1.36004835 24.66175988 -1.4140625 31.4375 C-1.43279923 32.92823325 -1.45237447 34.41895618 -1.4727478 35.90966797 C-1.52381073 39.8090401 -1.56357365 43.70844652 -1.60089111 47.60797119 C-1.64109395 51.59680482 -1.69211154 55.58549901 -1.7421875 59.57421875 C-1.83864029 67.38271642 -1.92314179 75.19128225 -2 83 C-2.99 82.67 -3.98 82.34 -5 82 C-4.88107693 74.46003325 -4.75629736 66.92017874 -4.62768555 59.38037109 C-4.58471009 56.82212452 -4.54301375 54.26385608 -4.50268555 51.70556641 C-3.86599926 11.47642548 -3.86599926 11.47642548 0 0 Z " fill="#AAAAA9" transform="translate(141,21)"/>
<path d="M0 0 C6.05891753 9.0883763 5.46340231 22.97413245 5.51171875 33.46484375 C5.52862613 34.87831617 5.54678412 36.29177412 5.56611633 37.70521545 C5.61296684 41.36940984 5.64319096 45.03354565 5.66955566 48.69793701 C5.69969531 52.45954986 5.74610764 56.22096148 5.79101562 59.98242188 C5.87630648 67.32153018 5.94246484 74.660612 6 82 C12.435 85.465 12.435 85.465 19 89 C18.01 89.495 18.01 89.495 17 90 C15.1953125 89.2578125 15.1953125 89.2578125 13.125 88.125 C10.97852459 86.95790501 9.19110394 86.04420554 6.8046875 85.4921875 C6.20914063 85.32976562 5.61359375 85.16734375 5 85 C3.6351746 82.27034919 3.85263935 80.08060781 3.82641602 77.02490234 C3.81292618 75.76954681 3.79943634 74.51419128 3.78553772 73.22079468 C3.78047777 72.547505 3.77541782 71.87421532 3.77020454 71.18052292 C3.75377731 69.06936722 3.73053438 66.95838834 3.70530701 64.84732056 C3.63461131 58.84410462 3.57467614 52.84081305 3.52319336 46.83740234 C3.49122152 43.16507807 3.44989188 39.49295187 3.40299797 35.82078934 C3.38707489 34.42631253 3.37470909 33.03179008 3.36609077 31.63724899 C3.31281987 23.13385313 2.68809873 16.06429619 0 8 C-0.12781786 5.32605036 -0.04391871 2.67904143 0 0 Z " fill="#C5C5C3" transform="translate(170,21)"/>
<path d="M0 0 C2.375 -0.125 2.375 -0.125 5 0 C8.77363099 3.77363099 7.96009341 9.88040423 8 15 C7.83900555 23.00617507 7.43110856 31.00445148 7 39 C10.465 40.98 10.465 40.98 14 43 C10.86559131 44.0448029 9.97903963 44.15317663 7 43 C4.41004559 39.11506838 4.74774458 35.89432764 4.8046875 31.39453125 C4.8075174 30.55532639 4.81034729 29.71612152 4.81326294 28.85148621 C4.82445615 26.17167897 4.84955899 23.49220619 4.875 20.8125 C4.88503092 18.99544754 4.89415657 17.17838983 4.90234375 15.36132812 C4.92439266 10.90742325 4.95891649 6.45376833 5 2 C3.35 1.67 1.7 1.34 0 1 C0 0.67 0 0.34 0 0 Z " fill="#9C9C9B" transform="translate(213,87)"/>
<path d="M0 0 C1.32 0 2.64 0 4 0 C4 1.32 4 2.64 4 4 C4.66 4 5.32 4 6 4 C6 2.68 6 1.36 6 0 C9 0 12 0 15 0 C15.80967438 2.91482778 16.21845993 4.46113217 15.0625 7.3125 C14.711875 7.869375 14.36125 8.42625 14 9 C12.68 8.67 11.36 8.34 10 8 C9.67 5.69 9.34 3.38 9 1 C8.34 1 7.68 1 7 1 C6.67 2.65 6.34 4.3 6 6 C5.01 5.67 4.02 5.34 3 5 C3 3.68 3 2.36 3 1 C2.01 0.67 1.02 0.34 0 0 Z " fill="#676765" transform="translate(100,157)"/>
<path d="M0 0 C0.33 0 0.66 0 1 0 C1.21348805 8.197116 0.57174344 16.11972262 -0.4375 24.25 C-0.57220703 25.38179687 -0.70691406 26.51359375 -0.84570312 27.6796875 C-1.49984974 33.12984567 -2.19185303 38.57050771 -3 44 C-3.66 44 -4.32 44 -5 44 C-5 41.03 -5 38.06 -5 35 C-4.34 35 -3.68 35 -3 35 C-2.95101562 33.8140625 -2.90203125 32.628125 -2.8515625 31.40625 C-2.37717298 20.85026149 -1.48621743 10.46123923 0 0 Z " fill="#969695" transform="translate(172,216)"/>
<path d="M0 0 C0.33 0.99 0.66 1.98 1 3 C0.25105469 3.08636719 -0.49789062 3.17273438 -1.26953125 3.26171875 C-4.5389848 4.14573409 -5.55433187 5.22873006 -7.6875 7.8125 C-8.26886719 8.49957031 -8.85023437 9.18664062 -9.44921875 9.89453125 C-12.35358509 13.83773895 -13.33821996 17.14694639 -14 22 C-13.01 22.33 -12.02 22.66 -11 23 C-12.32 23 -13.64 23 -15 23 C-15.08187055 21.43839515 -15.13958275 19.87551517 -15.1875 18.3125 C-15.22230469 17.44238281 -15.25710937 16.57226562 -15.29296875 15.67578125 C-14.80429266 11.21253965 -12.82828664 8.7692192 -9.58984375 5.76171875 C-8.71457031 5.07722656 -7.83929688 4.39273437 -6.9375 3.6875 C-6.05964844 2.99011719 -5.18179688 2.29273438 -4.27734375 1.57421875 C-2 0 -2 0 0 0 Z " fill="#7F7F7E" transform="translate(114,279)"/>
<path d="M0 0 C7.9666501 11.94997515 5.3008504 30.42161849 5 44 C4.67 44 4.34 44 4 44 C3.98018066 43.28457031 3.96036133 42.56914063 3.93994141 41.83203125 C3.84400673 38.5543514 3.73460702 35.27724999 3.625 32 C3.5940625 30.87464844 3.563125 29.74929687 3.53125 28.58984375 C3.27284231 21.22522453 2.33212327 14.99636981 0 8 C-0.12781786 5.32605036 -0.04391871 2.67904143 0 0 Z " fill="#D0D0CF" transform="translate(170,21)"/>
<path d="M0 0 C0.99 0.33 1.98 0.66 3 1 C2.57692877 2.31722179 2.13602514 3.62872664 1.6875 4.9375 C1.44386719 5.66839844 1.20023438 6.39929688 0.94921875 7.15234375 C0 9 0 9 -3 10 C-3.33 7.69 -3.66 5.38 -4 3 C-4.54269531 3.22816406 -5.08539063 3.45632812 -5.64453125 3.69140625 C-6.71767578 4.12259766 -6.71767578 4.12259766 -7.8125 4.5625 C-8.52019531 4.85253906 -9.22789063 5.14257812 -9.95703125 5.44140625 C-12 6 -12 6 -15 5 C-11.82726539 1.82726539 -7.98366408 2.5497581 -3.65234375 2.34375 C-2.33943359 2.17359375 -2.33943359 2.17359375 -1 2 C-0.67 1.34 -0.34 0.68 0 0 Z " fill="#A4A4A2" transform="translate(84,162)"/>
<path d="M0 0 C7.89315068 1.10136986 7.89315068 1.10136986 11 3 C12.3125 6.625 12.3125 6.625 13 10 C13.33 8.02 13.66 6.04 14 4 C14.721875 4.144375 15.44375 4.28875 16.1875 4.4375 C17.115625 4.623125 18.04375 4.80875 19 5 C20.66666667 5.33333333 22.33333333 5.66666667 24 6 C24 6.66 24 7.32 24 8 C17.25 7.125 17.25 7.125 15 6 C15 7.98 15 9.96 15 12 C13.68 12 12.36 12 11 12 C9.64560332 9.29120665 9.93498549 6.99066732 10 4 C6.7 3.01 3.4 2.02 0 1 C0 0.67 0 0.34 0 0 Z " fill="#A5A5A4" transform="translate(250,170)"/>
<path d="M0 0 C0 0.66 0 1.32 0 2 C-1.7634375 2.804375 -1.7634375 2.804375 -3.5625 3.625 C-7.89225747 5.78987873 -11.70981744 8.42371461 -15 12 C-15.33 12.99 -15.66 13.98 -16 15 C-16.66 15 -17.32 15 -18 15 C-18.375 12.8125 -18.375 12.8125 -18 10 C-13.8042906 5.58346379 -6.29495822 0 0 0 Z " fill="#81817F" transform="translate(18,166)"/>
<path d="M0 0 C1.65 0 3.3 0 5 0 C5 1.32 5 2.64 5 4 C5.66 4 6.32 4 7 4 C7 2.68 7 1.36 7 0 C8.65 0 10.3 0 12 0 C10.68 0.33 9.36 0.66 8 1 C8 2.32 8 3.64 8 5 C6.68 5 5.36 5 4 5 C4 3.68 4 2.36 4 1 C3.34 1 2.68 1 2 1 C1.9175 2.11375 1.835 3.2275 1.75 4.375 C1 8 1 8 -1.0625 9.4375 C-2.0215625 9.7159375 -2.0215625 9.7159375 -3 10 C-3.33 9.34 -3.66 8.68 -4 8 C-3.01 8 -2.02 8 -1 8 C-0.67 5.36 -0.34 2.72 0 0 Z " fill="#919190" transform="translate(201,157)"/>
<path d="M0 0 C2.91985181 0.68088981 5.35122304 1.58101234 8 3 C7.01 5.31 6.02 7.62 5 10 C0.76169024 7.17446016 1.02284652 4.87819112 0 0 Z " fill="#898988" transform="translate(225,162)"/>
<path d="M0 0 C0 0.66 0 1.32 0 2 C-3.21278869 4.9557656 -6.91947161 6.54266843 -11 8 C-13.21875 7.578125 -13.21875 7.578125 -15 7 C-12.87767021 5.82823482 -10.75242209 4.66245215 -8.625 3.5 C-7.72007813 2.99919922 -7.72007813 2.99919922 -6.796875 2.48828125 C-2.2265625 0 -2.2265625 0 0 0 Z " fill="#7E7E7D" transform="translate(49,150)"/>
<path d="M0 0 C0.33 0 0.66 0 1 0 C1.38614349 6.8218683 0.00865708 12.49577707 -2 19 C-2.33 19 -2.66 19 -3 19 C-3.38614349 12.1781317 -2.00865708 6.50422293 0 0 Z " fill="#8E8E8D" transform="translate(141,21)"/>
<path d="M0 0 C-0.625 1.875 -0.625 1.875 -2 4 C-5.81058817 5.73961634 -8.03483443 6.19298271 -12 5 C-10.37750059 4.16180842 -8.75191503 3.3295884 -7.125 2.5 C-6.22007813 2.0359375 -5.31515625 1.571875 -4.3828125 1.09375 C-2 0 -2 0 0 0 Z " fill="#636362" transform="translate(34,158)"/>
<path d="M0 0 C0.99 0.33 1.98 0.66 3 1 C2.34 3.31 1.68 5.62 1 8 C0.01 8 -0.98 8 -2 8 C-2.33 6.02 -2.66 4.04 -3 2 C-2.34 2 -1.68 2 -1 2 C-0.67 1.34 -0.34 0.68 0 0 Z " fill="#6E6E6D" transform="translate(84,162)"/>
<path d="M0 0 C5.95507399 0.3916035 10.62819824 1.37124595 16 4 C12.65508511 5.13529002 10.73934469 4.86633118 7.4375 3.6875 C6.67308594 3.42324219 5.90867188 3.15898437 5.12109375 2.88671875 C3 2 3 2 0 0 Z " fill="#959594" transform="translate(234,165)"/>
<path d="M0 0 C0 0.66 0 1.32 0 2 C-0.99 2 -1.98 2 -3 2 C-3.33 2.99 -3.66 3.98 -4 5 C-7 7 -7 7 -9.1875 6.625 C-9.785625 6.41875 -10.38375 6.2125 -11 6 C-9.54550599 4.9944239 -8.08627557 3.99569565 -6.625 3 C-5.40683594 2.1646875 -5.40683594 2.1646875 -4.1640625 1.3125 C-2 0 -2 0 0 0 Z " fill="#848482" transform="translate(143,260)"/>
<path d="M0 0 C3.01111938 4.51667907 3.10067926 7.6639991 3 13 C0.73437327 10.73437327 0.05537251 9.15839295 -0.09765625 5.95703125 C-0.06510417 3.97135417 -0.03255208 1.98567708 0 0 Z " fill="#8E8E8D" transform="translate(170,21)"/>
</svg>
