<?xml version="1.0" encoding="UTF-8"?>
<svg version="1.1" xmlns="http://www.w3.org/2000/svg" width="546" height="532">
<path d="M0 0 C4.32354141 0.77206097 5.9445805 2.27916546 8.5 5.625 C9.02207031 6.24890625 9.54414063 6.8728125 10.08203125 7.515625 C25.06920306 26.86700711 26.87377006 50.43480201 28.25048828 73.93041992 C28.39123434 76.01448068 28.54416414 78.09806164 28.73832703 80.17782593 C29.50348691 88.45813043 29.71479087 96.70411176 29.81640625 105.015625 C29.83703759 106.4557954 29.85803537 107.89596059 29.87937927 109.33612061 C29.93396327 113.08420531 29.98364684 116.83233868 30.03222656 120.58050537 C30.0918618 125.1003997 30.15773102 129.62020717 30.22252655 134.14002991 C30.31973202 140.96829919 30.40913551 147.79663016 30.5 154.625 C40.4 155.285 50.3 155.945 60.5 156.625 C60.63047463 147.05369689 60.63047463 147.05369689 60.70776367 137.48193359 C60.9266876 127.95341084 62.63539911 120.44703874 66.5 111.625 C66.81864014 110.8520459 67.13728027 110.0790918 67.46557617 109.28271484 C68.5 107.625 68.5 107.625 71.625 106.875 C72.57375 106.7925 73.5225 106.71 74.5 106.625 C75.28229725 108.22360743 76.05003031 109.82934121 76.8125 111.4375 C77.24175781 112.33082031 77.67101562 113.22414063 78.11328125 114.14453125 C82.16171723 124.30553537 82.8948308 133.41524522 82.6875 144.3125 C82.67241097 145.70766768 82.65873009 147.10285134 82.64648438 148.49804688 C82.61143868 151.87411584 82.56230508 155.24934276 82.5 158.625 C83.31073975 158.70427734 84.12147949 158.78355469 84.95678711 158.86523438 C132.72386107 163.59458296 180.35601376 169.79683431 227.91375732 176.27349854 C232.43291105 176.88770584 236.95280758 177.49640022 241.47265625 178.10546875 C250.14892321 179.2750745 258.82466569 180.44849612 267.5 181.625 C267.5 182.285 267.5 182.945 267.5 183.625 C268.16 183.625 268.82 183.625 269.5 183.625 C271.47285803 187.57071606 270.68484506 192.53683017 270.6875 196.875 C270.69974609 197.91269531 270.71199219 198.95039063 270.72460938 200.01953125 C270.73468248 205.27769111 270.64125467 209.71619482 268.5 214.625 C263.73688335 215.65486306 259.22060437 215.67526153 254.37890625 215.5625 C251.49530305 215.55530256 251.49530305 215.55530256 248.67211914 216.10351562 C242.77922839 216.96745583 236.81113708 216.89641836 230.8671875 217.03125 C215.98758484 217.41568982 201.12475644 218.06438271 186.2578125 218.78125 C185.14358665 218.83483673 184.02936081 218.88842346 182.88137054 218.94363403 C175.96537227 219.27693665 169.04957767 219.61431816 162.1338501 219.95318604 C151.73785842 220.46223501 141.34163422 220.966491 130.9453125 221.46875 C129.85013557 221.5217627 128.75495865 221.57477539 127.62659454 221.62939453 C111.58781461 222.40409424 95.54985197 223.11839049 79.5 223.625 C79.50131424 224.37433304 79.50262848 225.12366608 79.50398254 225.89570618 C79.50500473 226.8818541 79.50602692 227.86800201 79.50708008 228.8840332 C79.50839432 229.86024124 79.50970856 230.83644928 79.51106262 231.84223938 C79.47635169 240.57364214 79.18250114 248.61956275 75.5 256.625 C72.5374441 256.87187966 70.87943983 256.83579991 68.25 255.375 C64.97490989 252.09990989 65.33607636 247.99065405 65.18359375 243.546875 C65.14169922 242.38671875 65.09980469 241.2265625 65.05664062 240.03125 C65.01732422 238.8246875 64.97800781 237.618125 64.9375 236.375 C64.89431641 235.15296875 64.85113281 233.9309375 64.80664062 232.671875 C64.70062645 229.6563608 64.59856064 226.64076552 64.5 223.625 C63.9016333 223.66052979 63.3032666 223.69605957 62.68676758 223.73266602 C59.89577987 223.89321549 57.10422642 224.04037584 54.3125 224.1875 C53.37212891 224.24357422 52.43175781 224.29964844 51.46289062 224.35742188 C46.1263043 224.62877372 40.94847644 224.57451061 35.61987305 224.13256836 C33.89235054 223.99171059 33.89235054 223.99171059 32.12992859 223.8480072 C31.26205215 223.77441483 30.39417572 223.70082245 29.5 223.625 C29.51879211 224.62167694 29.51879211 224.62167694 29.53796387 225.63848877 C29.67085973 232.71466632 29.80001843 239.79090583 29.92724609 246.8671875 C29.97456042 249.48895779 30.02330605 252.11068967 30.07275391 254.73242188 C30.62473019 284.06601877 30.52420685 313.3728693 30.12768555 342.70654297 C30.07164633 346.86870049 30.02183155 351.0309103 29.97328281 355.19316101 C29.93442106 358.43764705 29.89133868 361.68206695 29.84705925 364.92648315 C29.82677771 366.4638371 29.8080426 368.0012123 29.79092598 369.53860474 C29.76685167 371.66384475 29.73683433 373.78892156 29.70532227 375.9140625 C29.68200584 377.71931396 29.68200584 377.71931396 29.65821838 379.56103516 C29.52709791 382.10023771 29.24465238 384.20904885 28.5 386.625 C29.10499832 386.80000534 29.70999664 386.97501068 30.33332825 387.15531921 C36.4968492 388.96719056 42.54124724 391.00223463 48.57421875 393.20703125 C49.50112015 393.54369308 50.42802155 393.88035492 51.38301086 394.22721863 C53.33225447 394.93600003 55.28099445 395.64616787 57.22924805 396.35766602 C60.16119271 397.4278972 63.09510348 398.49259247 66.02929688 399.55664062 C70.68271066 401.24669867 75.32503581 402.96507227 79.96426392 404.69363403 C82.33966412 405.56610926 84.72472503 406.40238046 87.1159668 407.23022461 C88.47084218 407.72035789 89.82543787 408.21126538 91.1796875 408.703125 C92.33065918 409.10563477 93.48163086 409.50814453 94.66748047 409.92285156 C99.36264011 412.74431795 100.49785335 417.00563361 101.93359375 422.08984375 C103.40874656 431.29683196 103.40874656 431.29683196 100.875 435 C96.58153821 437.93763175 91.81378313 437.75358008 86.76098633 437.47900391 C85.65576126 437.42209381 84.55053619 437.36518372 83.41181946 437.30654907 C82.23048935 437.2389035 81.04915924 437.17125793 79.83203125 437.1015625 C78.60143478 437.03593109 77.37083832 436.97029968 76.10295105 436.90267944 C73.5013286 436.76273031 70.89987344 436.61964078 68.29858398 436.47363281 C64.34457114 436.2517993 60.39015373 436.0390768 56.43554688 435.828125 C53.90101254 435.69064005 51.36650631 435.55263586 48.83203125 435.4140625 C47.6608223 435.35046539 46.48961334 435.28686829 45.28291321 435.22134399 C38.33917492 434.82977406 31.42131649 434.30732574 24.5 433.625 C24.4071875 435.3265625 24.4071875 435.3265625 24.3125 437.0625 C22.77838968 443.47167202 16.39265139 446.25049732 11.17041016 449.50024414 C9.41940692 450.67926664 7.85381624 451.9713613 6.2578125 453.3515625 C3.5 455.625 3.5 455.625 0.625 456.3125 C-3.16995567 455.47760975 -5.16888339 453.96977723 -8.14453125 451.53515625 C-9.90628585 450.10646968 -11.72720607 448.75020635 -13.57421875 447.43359375 C-14.64285156 446.67175781 -15.71148437 445.90992188 -16.8125 445.125 C-18.32263672 444.05765625 -18.32263672 444.05765625 -19.86328125 442.96875 C-22.73988503 440.41176886 -24.01771508 438.14605906 -25.5 434.625 C-40.74117014 435.10098424 -55.96365713 435.76463779 -71.1875 436.625 C-72.32017807 436.68769073 -72.32017807 436.68769073 -73.47573853 436.75164795 C-75.65459286 436.87293429 -77.83317544 436.99826139 -80.01171875 437.125 C-81.26428467 437.1971875 -82.51685059 437.269375 -83.80737305 437.34375 C-86.51035383 437.54962331 -89.1059462 437.84715753 -91.78051758 438.23828125 C-95.5 438.625 -95.5 438.625 -98.5 437.3125 C-99.16 436.755625 -99.82 436.19875 -100.5 435.625 C-100.5 434.965 -100.5 434.305 -100.5 433.625 C-101.16 433.625 -101.82 433.625 -102.5 433.625 C-102.90873856 428.41358341 -102.30416804 423.94867129 -101 418.875 C-100.7215625 417.78703125 -100.443125 416.6990625 -100.15625 415.578125 C-96.21544251 408.55159088 -85.21285055 406.62625504 -78 404.125 C-75.52256283 403.25498138 -73.04580147 402.38333207 -70.5703125 401.5078125 C-69.6041954 401.16636703 -69.6041954 401.16636703 -68.61856079 400.81802368 C-59.23706821 397.48615914 -49.93771817 393.92879917 -40.63476562 390.38476562 C-39.32683311 389.889296 -38.0188909 389.39385197 -36.7109375 388.8984375 C-35.55899902 388.45935059 -34.40706055 388.02026367 -33.22021484 387.56787109 C-30.5 386.625 -30.5 386.625 -28.5 386.625 C-28.62278061 382.12791329 -28.74617532 377.63084389 -28.87011719 373.13378906 C-28.91529454 371.49365489 -28.96037813 369.85351814 -29.00537109 368.21337891 C-29.23886186 359.71332146 -29.47574229 351.21357073 -29.75390625 342.71484375 C-30.78405589 311.15887655 -31.55805035 279.57386246 -31.625 248 C-31.62959229 246.85378174 -31.63418457 245.70756348 -31.63891602 244.52661133 C-31.62800611 238.82334815 -31.3693544 233.23981846 -30.71435547 227.57275391 C-30.46353594 225.62025271 -30.46353594 225.62025271 -30.5 223.625 C-31.0165918 223.79249756 -31.53318359 223.95999512 -32.06542969 224.13256836 C-35.25914205 224.77854889 -38.19706507 224.62807803 -41.453125 224.50390625 C-42.11334656 224.48029526 -42.77356812 224.45668427 -43.45379639 224.43235779 C-45.552769 224.3560719 -47.65133949 224.27189847 -49.75 224.1875 C-51.17706397 224.1342441 -52.60414728 224.08150396 -54.03125 224.02929688 C-57.52107733 223.90050501 -61.01058798 223.76463981 -64.5 223.625 C-64.49564941 224.32842529 -64.49129883 225.03185059 -64.48681641 225.7565918 C-64.46695743 231.33460014 -64.53110339 236.86993248 -64.875 242.4375 C-64.94460937 243.66082031 -65.01421875 244.88414062 -65.0859375 246.14453125 C-65.49594544 249.59091873 -66.13872783 252.43451835 -67.5 255.625 C-70.125 257 -70.125 257 -72.5 257.625 C-75.10110951 256.05174828 -77.13287048 254.78194914 -78.08398438 251.78466797 C-78.41136457 249.54148805 -78.60670322 247.32490876 -78.75 245.0625 C-78.81880371 244.26344238 -78.88760742 243.46438477 -78.95849609 242.64111328 C-79.09422842 241.04424342 -79.22055932 239.44654317 -79.33691406 237.84814453 C-79.55360878 234.8942193 -79.8405705 231.9480733 -80.125 229 C-80.25198705 227.54183835 -80.37791618 226.08358036 -80.5 224.625 C-85.23234313 224.07174068 -89.9179794 223.55218289 -94.6875 223.625 C-98.44195518 223.6702344 -102.1304168 223.46503467 -105.875 223.1875 C-111.46603789 222.77812327 -117.04872802 222.52495784 -122.65185547 222.34936523 C-137.2047473 221.89184732 -151.71892347 221.03062788 -166.25 220.125 C-183.94275806 219.02468824 -201.60149963 218.17739545 -219.32226562 217.71337891 C-227.72170337 217.47977438 -236.11165515 217.11306004 -244.5 216.625 C-246.04179932 216.53847168 -246.04179932 216.53847168 -247.61474609 216.45019531 C-250.8076687 216.26065011 -253.99716919 216.04126982 -257.1875 215.8125 C-258.66863281 215.72560913 -258.66863281 215.72560913 -260.1796875 215.63696289 C-261.55060547 215.52856079 -261.55060547 215.52856079 -262.94921875 215.41796875 C-263.75705811 215.3614917 -264.56489746 215.30501465 -265.3972168 215.24682617 C-268.21708498 214.41294666 -269.00312191 213.09719587 -270.5 210.625 C-273.04875437 203.22407155 -272.7177942 195.34459442 -272.5 187.625 C-270.85 187.295 -269.2 186.965 -267.5 186.625 C-267.5 184.975 -267.5 183.325 -267.5 181.625 C-266.19504326 181.45373344 -266.19504326 181.45373344 -264.86372375 181.27900696 C-256.4722378 180.17755299 -248.08084413 179.07539881 -239.68954182 177.97254658 C-235.38039563 177.40622674 -231.07121981 176.84013484 -226.76196289 176.2746582 C-221.75396942 175.61745595 -216.74609815 174.95932752 -211.73828125 174.30078125 C-210.89986254 174.1906004 -210.06144382 174.08041954 -209.19761848 173.96689987 C-200.0736166 172.76720412 -190.95140806 171.55608216 -181.83374023 170.30908203 C-163.4845766 167.80042428 -145.13226768 165.4289873 -126.7331543 163.31201172 C-122.8469914 162.86457931 -118.96156132 162.41112694 -115.07617188 161.95703125 C-112.54951881 161.66372078 -110.02282759 161.37073882 -107.49609375 161.078125 C-106.36167343 160.9458551 -105.22725311 160.81358521 -104.05845642 160.67730713 C-96.88139844 159.85442777 -89.70255012 159.18198626 -82.5 158.625 C-82.53871719 157.99201492 -82.57743439 157.35902985 -82.61732483 156.7068634 C-84.76777069 121.2222243 -84.76777069 121.2222243 -75.0546875 107.59765625 C-73.5 106.625 -73.5 106.625 -71.4765625 106.640625 C-68.71643214 108.01523537 -68.14826589 109.5984589 -66.875 112.375 C-66.47023437 113.23609375 -66.06546875 114.0971875 -65.6484375 114.984375 C-65.26945313 115.85578125 -64.89046875 116.7271875 -64.5 117.625 C-64.14164063 118.43453125 -63.78328125 119.2440625 -63.4140625 120.078125 C-61.58446436 125.17597965 -61.37854877 130.17702101 -61.40234375 135.5546875 C-61.40556641 136.84375 -61.40878906 138.1328125 -61.41210938 139.4609375 C-61.42046267 140.80729236 -61.42892759 142.15364652 -61.4375 143.5 C-61.4425217 144.86979004 -61.44708343 146.23958185 -61.45117188 147.609375 C-61.46292746 150.9479619 -61.47936036 154.28645815 -61.5 157.625 C-60.84 157.295 -60.18 156.965 -59.5 156.625 C-57.25148507 156.40088512 -54.99736931 156.23197706 -52.7421875 156.08984375 C-52.07913605 156.04686661 -51.41608459 156.00388947 -50.73294067 155.95960999 C-48.61386277 155.82319167 -46.49446345 155.69277719 -44.375 155.5625 C-42.93877689 155.4710981 -41.50257856 155.37930607 -40.06640625 155.28710938 C-36.5445471 155.06187752 -33.02237524 154.84202886 -29.5 154.625 C-29.56144179 146.3052548 -29.63871151 137.98586593 -29.73571491 129.66646671 C-29.78027942 125.80264977 -29.81956529 121.93893489 -29.84643555 118.07495117 C-29.87260865 114.33999516 -29.91310746 110.60543488 -29.96318626 106.87072563 C-29.97976099 105.45196932 -29.99133339 104.03314472 -29.99761391 102.6143055 C-30.0322155 95.51043943 -30.10825605 89.05771527 -32.79460144 82.40934753 C-34.62529438 77.77850107 -34.85143647 72.54511051 -34.5 67.625 C-32.1875 64.5 -32.1875 64.5 -29.5 62.625 C-27.3473815 59.39607224 -27.13043735 57.90213607 -26.6875 54.125 C-24.20468927 36.76472186 -19.50091559 19.55440007 -8.5 5.625 C-8.066875 5.05394531 -7.63375 4.48289063 -7.1875 3.89453125 C-4.91416518 1.22485845 -3.47822608 0.6211118 0 0 Z " fill="#040404" transform="translate(273.5,47.375)"/>
<path d="M0 0 C12.21 0 24.42 0 37 0 C37.13286067 14.13058025 37.26364011 28.2611761 37.39115143 42.39180565 C37.45049119 48.95945761 37.51060301 55.52710043 37.57275391 62.09472656 C37.89668323 96.397506 38.07502947 130.69566265 38 165 C35.62803149 165.95106136 33.25584938 166.90158391 30.88354492 167.85180664 C29.88752888 168.25126369 29.88752888 168.25126369 28.8713913 168.65879059 C23.04531826 170.99160877 17.19686925 173.25546699 11.3125 175.4375 C10.36439453 175.80037109 9.41628906 176.16324219 8.43945312 176.53710938 C7.07143555 177.04274414 7.07143555 177.04274414 5.67578125 177.55859375 C4.87052002 177.86079834 4.06525879 178.16300293 3.2355957 178.47436523 C0.76089956 179.05621746 -0.62273677 178.82142176 -3 178 C1.57038606 176.32448492 6.14194966 174.65223697 10.71459961 172.98291016 C12.26765614 172.41543167 13.82039613 171.84708606 15.37280273 171.27783203 C17.61357833 170.4563342 19.85550115 169.63803653 22.09765625 168.8203125 C23.12621483 168.44206833 23.12621483 168.44206833 24.17555237 168.05618286 C28.40991227 166.51615137 32.65409879 165.19086093 37 164 C36.87721939 159.50291329 36.75382468 155.00584389 36.62988281 150.50878906 C36.58470546 148.86865489 36.53962187 147.22851814 36.49462891 145.58837891 C36.26113814 137.08832146 36.02425771 128.58857073 35.74609375 120.08984375 C34.71594411 88.53387655 33.94194965 56.94886246 33.875 25.375 C33.86811157 23.65567261 33.86811157 23.65567261 33.86108398 21.90161133 C33.87199389 16.19834815 34.1306456 10.61481846 34.78564453 4.94775391 C35.03646406 2.99525271 35.03646406 2.99525271 35 1 C34.4834082 1.16749756 33.96681641 1.33499512 33.43457031 1.50756836 C30.24085795 2.15354889 27.30293493 2.00307803 24.046875 1.87890625 C23.38665344 1.85529526 22.72643188 1.83168427 22.04620361 1.80735779 C19.947231 1.7310719 17.84866051 1.64689847 15.75 1.5625 C14.32293603 1.5092441 12.89585272 1.45650396 11.46875 1.40429688 C7.97892267 1.27550501 4.48941202 1.13963981 1 1 C1.00435059 1.70342529 1.00870117 2.40685059 1.01318359 3.1315918 C1.03304257 8.70960014 0.96889661 14.24493248 0.625 19.8125 C0.55539063 21.03582031 0.48578125 22.25914062 0.4140625 23.51953125 C0.00405456 26.96591873 -0.63872783 29.80951835 -2 33 C-4.625 34.375 -4.625 34.375 -7 35 C-7.99 33.68 -8.98 32.36 -10 31 C-9.236875 31.020625 -8.47375 31.04125 -7.6875 31.0625 C-4.89814214 31.12942841 -4.89814214 31.12942841 -2 30 C-2.02320313 29.175 -2.04640625 28.35 -2.0703125 27.5 C-2.21956728 17.94769377 -1.21123481 9.68987848 0 0 Z " fill="#AAABAC" transform="translate(208,270)"/>
<path d="M0 0 C12.54 0 25.08 0 38 0 C38.495 7.425 38.495 7.425 39 15 C39.495 16.485 39.495 16.485 40 18 C40.26616965 20.76731942 40.44368808 23.53427101 40.62109375 26.30859375 C40.99453522 28.96118319 41.65929668 30.70397771 43 33 C43.99 33 44.98 33 46 33 C46 32.01 46 31.02 46 30 C46.66 30 47.32 30 48 30 C47.67 31.32 47.34 32.64 47 34 C44.0374441 34.24687966 42.37943983 34.21079991 39.75 32.75 C36.47490989 29.47490989 36.83607636 25.36565405 36.68359375 20.921875 C36.64169922 19.76171875 36.59980469 18.6015625 36.55664062 17.40625 C36.51732422 16.1996875 36.47800781 14.993125 36.4375 13.75 C36.39431641 12.52796875 36.35113281 11.3059375 36.30664062 10.046875 C36.20062645 7.0313608 36.09856064 4.01576552 36 1 C35.4016333 1.03552979 34.8032666 1.07105957 34.18676758 1.10766602 C31.39577987 1.26821549 28.60422642 1.41537584 25.8125 1.5625 C24.40194336 1.64661133 24.40194336 1.64661133 22.96289062 1.73242188 C17.6263043 2.00377372 12.44847644 1.94951061 7.11987305 1.50756836 C5.96819138 1.41366318 4.8165097 1.319758 3.62992859 1.2230072 C2.76205215 1.14941483 1.89417572 1.07582245 1 1 C1.01252808 1.66445129 1.02505615 2.32890259 1.03796387 3.01348877 C1.17085973 10.08966632 1.30001843 17.16590583 1.42724609 24.2421875 C1.47456042 26.86395779 1.52330605 29.48568967 1.57275391 32.10742188 C2.12473019 61.44101877 2.02420685 90.7478693 1.62768555 120.08154297 C1.57164633 124.24370049 1.52183155 128.4059103 1.47328281 132.56816101 C1.43442106 135.81264705 1.39133868 139.05706695 1.34705925 142.30148315 C1.32677771 143.8388371 1.3080426 145.3762123 1.29092598 146.91360474 C1.26685167 149.03884475 1.23683433 151.16392156 1.20532227 153.2890625 C1.18977798 154.49256348 1.1742337 155.69606445 1.15821838 156.93603516 C1.02709791 159.47523771 0.74465238 161.58404885 0 164 C2.31 164.66 4.62 165.32 7 166 C3.37673261 167.2077558 2.35853631 166.54311128 -1 165 C-1.07782774 129.41625758 -0.87315892 93.83920631 -0.53643799 58.25714111 C-0.47442872 51.65060934 -0.41508466 45.04405373 -0.35546875 38.4375 C-0.23948268 25.62497588 -0.12046745 12.81248277 0 0 Z " fill="#A7A7A8" transform="translate(302,270)"/>
<path d="M0 0 C1.125 3.75 1.125 3.75 0 6 C-4.67485047 7.23022381 -9.32856236 7.04911645 -14.12109375 6.9375 C-17.03781439 6.93667009 -17.03781439 6.93667009 -20.03515625 7.4765625 C-25.68313864 8.22220747 -31.30835427 8.25119795 -37 8.375 C-48.86061098 8.66507658 -60.70882573 9.15197425 -72.55859375 9.73046875 C-73.24612354 9.7639315 -73.93365334 9.79739426 -74.64201736 9.83187103 C-80.96014776 10.13990754 -87.27810166 10.45130467 -93.59545898 10.77484131 C-108.40277677 11.53315655 -123.16949123 12.26178181 -138 12 C-138 11.67 -138 11.34 -138 11 C-91.9783955 7.9011867 -91.9783955 7.9011867 -72.9765625 7.41650391 C-60.09064836 7.0356486 -47.24380627 6.0183886 -34.39355469 5.015625 C-23.23688621 4.16609457 -12.18814243 3.82362764 -1 4 C-0.67 2.68 -0.34 1.36 0 0 Z " fill="#8E8F90" transform="translate(542,256)"/>
<path d="M0 0 C0.99 0.33 1.98 0.66 3 1 C3.33 1.99 3.66 2.98 4 4 C22.11885601 5.34293714 40.22520031 6.18306561 58.38330078 6.76330566 C81.7845598 7.51187761 105.13370392 8.67093581 128.5 10.125 C129.24341393 10.17125267 129.98682785 10.21750534 130.75276947 10.26515961 C139.83595567 10.83137881 148.91835269 11.40958096 158 12 C156 14 156 14 154.08789062 14.18286133 C153.28544922 14.1495874 152.48300781 14.11631348 151.65625 14.08203125 C150.70266602 14.0459375 149.74908203 14.00984375 148.76660156 13.97265625 C147.68862305 13.91980469 146.61064453 13.86695313 145.5 13.8125 C144.34725586 13.76351563 143.19451172 13.71453125 142.00683594 13.6640625 C128.3125679 13.04143854 114.63177681 12.14374851 100.95007324 11.29537964 C84.35794597 10.26893732 67.79563421 9.52351701 51.17773438 9.08837891 C42.77829663 8.85477438 34.38834485 8.48806004 26 8 C24.45820068 7.91347168 24.45820068 7.91347168 22.88525391 7.82519531 C19.6923313 7.63565011 16.50283081 7.41626982 13.3125 7.1875 C12.32507812 7.12957275 11.33765625 7.07164551 10.3203125 7.01196289 C9.40636719 6.93969482 8.49242187 6.86742676 7.55078125 6.79296875 C6.33902222 6.70825317 6.33902222 6.70825317 5.1027832 6.62182617 C2.28236836 5.787785 1.46156803 4.4954388 0 2 C0 1.34 0 0.68 0 0 Z " fill="#8A8B8C" transform="translate(3,256)"/>
<path d="M0 0 C12.14414868 0.5839656 24.08734705 2.09218637 36.125 3.75 C38.09523235 4.01756065 40.06552958 4.28464388 42.03588867 4.55126953 C46.04854298 5.09500754 50.06080647 5.64150075 54.07275391 6.19042969 C59.77025811 6.96961341 65.46889739 7.74018458 71.16796875 8.5078125 C72.90022903 8.7412023 74.63248817 8.97460052 76.36474609 9.20800781 C77.18900085 9.3190686 78.01325562 9.43012939 78.86248779 9.54455566 C84.90873043 10.36004002 90.95435205 11.18012056 97 12 C97 12.66 97 13.32 97 14 C97.66 14 98.32 14 99 14 C100.27861615 16.55723229 100.11336609 18.36737102 100.09765625 21.2265625 C100.09282227 22.7734375 100.09282227 22.7734375 100.08789062 24.3515625 C100.07532227 25.97191406 100.07532227 25.97191406 100.0625 27.625 C100.05798828 28.71296875 100.05347656 29.8009375 100.04882812 30.921875 C100.03701776 33.61463789 100.02054778 36.30729188 100 39 C99.67 39 99.34 39 99 39 C99 32.07 99 25.14 99 18 C98.01 18 97.02 18 96 18 C95.67 16.35 95.34 14.7 95 13 C94.4021167 13.01015137 93.8042334 13.02030273 93.18823242 13.03076172 C86.8444307 13.09098574 80.62421946 12.74010575 74.3125 12.125 C73.41466797 12.04636719 72.51683594 11.96773437 71.59179688 11.88671875 C70.27211914 11.76103516 70.27211914 11.76103516 68.92578125 11.6328125 C67.75656128 11.52283936 67.75656128 11.52283936 66.5637207 11.41064453 C64 11 64 11 60.67504883 10.02099609 C56.87803799 8.96611671 53.17812302 8.42907471 49.2734375 8.03125 C47.76779121 7.8656021 46.26226131 7.69889371 44.75683594 7.53125 C43.97771851 7.44552734 43.19860107 7.35980469 42.39587402 7.27148438 C35.9449978 6.54051435 29.50979539 5.67642641 23.07421875 4.82275391 C21.41676581 4.60433756 19.75886967 4.38926264 18.10058594 4.17724609 C15.66236181 3.86524809 13.22566304 3.54315406 10.7890625 3.21875 C10.04854645 3.12597778 9.3080304 3.03320557 8.54507446 2.93762207 C5.02256709 2.45729662 3.01122403 2.00748269 0 0 Z " fill="#939495" transform="translate(444,217)"/>
<path d="M0 0 C12.54 0 25.08 0 38 0 C38.495 7.425 38.495 7.425 39 15 C39.495 16.485 39.495 16.485 40 18 C40.26616965 20.76731942 40.44368808 23.53427101 40.62109375 26.30859375 C40.99453522 28.96118319 41.65929668 30.70397771 43 33 C43.99 33 44.98 33 46 33 C46 32.01 46 31.02 46 30 C46.66 30 47.32 30 48 30 C47.67 31.32 47.34 32.64 47 34 C44.0374441 34.24687966 42.37943983 34.21079991 39.75 32.75 C36.47490989 29.47490989 36.83607636 25.36565405 36.68359375 20.921875 C36.64169922 19.76171875 36.59980469 18.6015625 36.55664062 17.40625 C36.51732422 16.1996875 36.47800781 14.993125 36.4375 13.75 C36.39431641 12.52796875 36.35113281 11.3059375 36.30664062 10.046875 C36.20062645 7.0313608 36.09856064 4.01576552 36 1 C35.4016333 1.03552979 34.8032666 1.07105957 34.18676758 1.10766602 C31.39577987 1.26821549 28.60422642 1.41537584 25.8125 1.5625 C24.40194336 1.64661133 24.40194336 1.64661133 22.96289062 1.73242188 C15.41361306 2.11628345 8.68735566 1.59133505 1 1 C1 15.52 1 30.04 1 45 C0.67 45 0.34 45 0 45 C0 30.15 0 15.3 0 0 Z " fill="#7C7D7E" transform="translate(302,270)"/>
<path d="M0 0 C0.99 0.33 1.98 0.66 3 1 C3.02312635 9.5880572 3.04091658 18.17610149 3.05181217 26.76418209 C3.05704036 30.751572 3.06413684 34.73894067 3.07543945 38.72631836 C3.08627061 42.57125114 3.09227732 46.41616345 3.09487724 50.26111031 C3.09673108 51.73118983 3.10035091 53.20126818 3.10573006 54.67133904 C3.11294355 56.72354467 3.11399081 58.77566467 3.11352539 60.82788086 C3.115746 61.99814316 3.11796661 63.16840546 3.12025452 64.37413025 C3 67 3 67 2 68 C-0.86267567 68.07325168 -3.700719 68.09238205 -6.5625 68.0625 C-7.36880859 68.05798828 -8.17511719 68.05347656 -9.00585938 68.04882812 C-11.00393756 68.03700518 -13.00197783 68.01906914 -15 68 C-15 67.67 -15 67.34 -15 67 C-7.08 66.505 -7.08 66.505 1 66 C0.67 44.22 0.34 22.44 0 0 Z " fill="#7A7B7C" transform="translate(243,136)"/>
<path d="M0 0 C4.36830297 4.36830297 4.91146982 10.39283381 5.11352539 16.34326172 C5.10828857 17.52678223 5.10305176 18.71030273 5.09765625 19.9296875 C5.09443359 21.21875 5.09121094 22.5078125 5.08789062 23.8359375 C5.07953733 25.18229236 5.07107241 26.52864652 5.0625 27.875 C5.0574783 29.24479004 5.05291657 30.61458185 5.04882812 31.984375 C5.03707254 35.3229619 5.02063964 38.66145815 5 42 C5.99 41.505 5.99 41.505 7 41 C9.37402501 40.92883618 11.75000677 40.91590915 14.125 40.9375 C15.40632812 40.94652344 16.68765625 40.95554688 18.0078125 40.96484375 C18.99523437 40.97644531 19.98265625 40.98804688 21 41 C21 41.66 21 42.32 21 43 C15.06 43 9.12 43 3 43 C2.86722656 40.48246094 2.73445312 37.96492188 2.59765625 35.37109375 C2.46599491 32.91524233 2.33326767 30.45945066 2.20043945 28.00366211 C2.10915668 26.30547941 2.01897073 24.60723736 1.92993164 22.90893555 C1.80127213 20.4586547 1.66858422 18.00861901 1.53515625 15.55859375 C1.49656998 14.80726669 1.4579837 14.05593964 1.41822815 13.28184509 C1.16967107 8.80265044 0.69738991 4.43213 0 0 Z " fill="#68696A" transform="translate(207,163)"/>
<path d="M0 0 C0.33 0 0.66 0 1 0 C1.57517025 16.36039811 1.57517025 16.36039811 -2 23 C-2.68803711 23.46575439 -3.37607422 23.93150879 -4.08496094 24.41137695 C-6.20050672 25.83063453 -6.20050672 25.83063453 -6.45410156 28.17651367 C-6.4331543 28.99869385 -6.41220703 29.82087402 -6.390625 30.66796875 C-6.37773437 31.56064453 -6.36484375 32.45332031 -6.3515625 33.37304688 C-6.31804687 34.30181641 -6.28453125 35.23058594 -6.25 36.1875 C-6.23195312 37.12787109 -6.21390625 38.06824219 -6.1953125 39.03710938 C-6.1481655 41.35909889 -6.08238231 43.6790369 -6 46 C-10.06502915 41.93497085 -9.81516694 34.63709282 -10.4375 29.125 C-9.85635254 24.97394669 -8.12342771 23.67722376 -5 21 C-2.76405409 17.64608114 -2.47616967 15.58127974 -1.9375 11.625 C-1.39432919 7.71955696 -0.81646938 3.85835972 0 0 Z " fill="#696A6B" transform="translate(249,89)"/>
<path d="M0 0 C-2.60525112 2.60525112 -3.93375012 2.31462325 -7.5625 2.5 C-11.12915665 2.6855218 -14.43834378 3.07016444 -17.89453125 3.9296875 C-24.16787882 5.39054073 -30.56427354 5.86348255 -36.96630859 6.43261719 C-39.12797103 6.62526478 -41.2885705 6.8275723 -43.44921875 7.03125 C-49.6508154 7.60126311 -55.76492308 8.07512141 -62 8 C-62 7.67 -62 7.34 -62 7 C-57.0606172 6.32161985 -52.12082224 5.64634327 -47.18066406 4.97363281 C-45.50900518 4.74559222 -43.83745101 4.51678239 -42.16601562 4.28710938 C-33.19065577 3.05434911 -24.21193751 1.86720351 -15.2109375 0.8359375 C-14.48701813 0.75066803 -13.76309875 0.66539856 -13.01724243 0.57754517 C-8.64016284 0.09006463 -4.39418336 -0.07686409 0 0 Z " fill="#909192" transform="translate(144,212)"/>
<path d="M0 0 C0.33 0 0.66 0 1 0 C1 9.9 1 19.8 1 30 C13.54 31.32 26.08 32.64 39 34 C39 34.33 39 34.66 39 35 C30.7562865 35.12444385 22.64833665 34.7865325 14.4375 34.0625 C13.37208984 33.97548828 12.30667969 33.88847656 11.20898438 33.79882812 C3.39473055 33.13157685 3.39473055 33.13157685 0 32 C0 21.44 0 10.88 0 0 Z " fill="#A7A7A8" transform="translate(355,176)"/>
<path d="M0 0 C3.76299173 5.64448759 4.28609449 10.80799067 4.1953125 17.4609375 C4.1924826 18.25150543 4.18965271 19.04207336 4.18673706 19.8565979 C4.17560955 22.36289084 4.15051926 24.86881645 4.125 27.375 C4.11496058 29.08202606 4.10583641 30.78905777 4.09765625 32.49609375 C4.07569463 36.6642024 4.04121671 40.83203908 4 45 C3.67 45 3.34 45 3 45 C2.94465088 43.91468994 2.88930176 42.82937988 2.83227539 41.71118164 C2.62639936 37.69855615 2.41436791 33.68627585 2.20043945 29.67407227 C2.10857906 27.93490295 2.01840604 26.19564368 1.92993164 24.45629883 C1.80274011 21.96149735 1.6695562 19.46707845 1.53515625 16.97265625 C1.49656998 16.19036148 1.4579837 15.40806671 1.41822815 14.60206604 C1.53368742 10.99872214 1.53368742 10.99872214 0 8 C-0.14115161 5.32941149 -0.04247107 2.67567762 0 0 Z " fill="#4F4F50" transform="translate(351,162)"/>
<path d="M0 0 C-0.33 0.99 -0.66 1.98 -1 3 C-13.87 3.33 -26.74 3.66 -40 4 C-40 3.67 -40 3.34 -40 3 C-26.69350891 1.30375176 -13.43547491 -0.10361549 0 0 Z " fill="#595A5B" transform="translate(249,479)"/>
<path d="M0 0 C-1 1 -1 1 -4.0625 1.0625 C-5.031875 1.041875 -6.00125 1.02125 -7 1 C-7 1.66 -7 2.32 -7 3 C-7.99 3 -8.98 3 -10 3 C-10 4.32 -10 5.64 -10 7 C-11.65 7 -13.3 7 -15 7 C-15 8.65 -15 10.3 -15 12 C-15.66 12 -16.32 12 -17 12 C-17 14.31 -17 16.62 -17 19 C-17.33 19 -17.66 19 -18 19 C-18 14.71 -18 10.42 -18 6 C-16.35 5.67 -14.7 5.34 -13 5 C-13 3.35 -13 1.7 -13 0 C-11.58456585 -0.19658808 -10.16755969 -0.38187546 -8.75 -0.5625 C-7.96109375 -0.66691406 -7.1721875 -0.77132812 -6.359375 -0.87890625 C-3.99467126 -1.00027349 -2.2488963 -0.69633257 0 0 Z " fill="#858687" transform="translate(19,229)"/>
<path d="M0 0 C1.125 3.75 1.125 3.75 0 6 C-4.22434626 7.00581521 -8.17139231 7.06408319 -12.4921875 6.87890625 C-13.69101562 6.83056641 -14.88984375 6.78222656 -16.125 6.73242188 C-17.98125 6.64831055 -17.98125 6.64831055 -19.875 6.5625 C-21.13570312 6.51029297 -22.39640625 6.45808594 -23.6953125 6.40429688 C-26.79715237 6.27505355 -29.89863488 6.14010469 -33 6 C-33 5.67 -33 5.34 -33 5 C-22.3051534 4.03711992 -11.72867997 3.89052367 -1 4 C-0.67 2.68 -0.34 1.36 0 0 Z " fill="#5D5E5F" transform="translate(542,256)"/>
<path d="M0 0 C13.2 0 26.4 0 40 0 C39.67 0.66 39.34 1.32 39 2 C34.36266059 3.16395196 29.91948275 2.99459646 25.1953125 2.66015625 C24.1093428 2.59144569 24.1093428 2.59144569 23.00143433 2.52134705 C20.70881959 2.3748205 18.41696607 2.21881421 16.125 2.0625 C14.56254075 1.96095958 13.0000409 1.86004175 11.4375 1.75976562 C7.62449272 1.51370935 3.81213854 1.25915437 0 1 C0 0.67 0 0.34 0 0 Z " fill="#6D6E6F" transform="translate(333,482)"/>
<path d="M0 0 C7.52792236 1.44067494 14.42113936 3.87004472 21.5625 6.625 C22.66658203 7.04523438 23.77066406 7.46546875 24.90820312 7.8984375 C27.60762781 8.92678976 30.30476001 9.9607405 33 11 C28.71252328 12.3307368 26.31620936 11.28737024 22.125 9.6875 C20.33449219 9.01267578 20.33449219 9.01267578 18.5078125 8.32421875 C17.35023438 7.88722656 16.19265625 7.45023437 15 7 C13.96359375 6.65839844 12.9271875 6.31679688 11.859375 5.96484375 C9.19703324 5.06648526 6.68132743 4.03696701 4.125 2.875 C3.34382813 2.52179688 2.56265625 2.16859375 1.7578125 1.8046875 C1.17773438 1.53914063 0.59765625 1.27359375 0 1 C0 0.67 0 0.34 0 0 Z " fill="#A3A4A5" transform="translate(309,437)"/>
<path d="M0 0 C10.3717909 0.69633932 20.67565342 1.8065009 31 3 C31 3.33 31 3.66 31 4 C28.02058002 4.05455703 25.04218469 4.09393851 22.0625 4.125 C20.81629883 4.15013672 20.81629883 4.15013672 19.54492188 4.17578125 C12.6173458 4.22969235 5.88346779 3.92231186 0 0 Z " fill="#929394" transform="translate(413,213)"/>
<path d="M0 0 C0.33 0 0.66 0 1 0 C1.13277344 1.14339844 1.26554688 2.28679687 1.40234375 3.46484375 C1.5805031 4.9557562 1.75890082 6.44664018 1.9375 7.9375 C2.02451172 8.69224609 2.11152344 9.44699219 2.20117188 10.22460938 C2.34324099 13.92187458 2.34324099 13.92187458 4 17 C4.07244053 19.01964199 4.08377188 21.04167124 4.0625 23.0625 C4.05347656 24.16722656 4.04445312 25.27195312 4.03515625 26.41015625 C4.02355469 27.26480469 4.01195312 28.11945313 4 29 C3.34 29 2.68 29 2 29 C1.4104851 23.74587687 0.82623381 18.49122145 0.24804688 13.23583984 C0.04006122 11.36110299 -0.17449861 9.48709706 -0.390625 7.61328125 C-0.63474198 5.41301639 -0.82485505 3.2068264 -1 1 C-0.67 0.67 -0.34 0.34 0 0 Z " fill="#818283" transform="translate(194,272)"/>
<path d="M0 0 C3.63 0.33 7.26 0.66 11 1 C11 1.66 11 2.32 11 3 C11.66 3 12.32 3 13 3 C14.27861615 5.55723229 14.11336609 7.36737102 14.09765625 10.2265625 C14.09443359 11.2578125 14.09121094 12.2890625 14.08789062 13.3515625 C14.07951172 14.43179688 14.07113281 15.51203125 14.0625 16.625 C14.05798828 17.71296875 14.05347656 18.8009375 14.04882812 19.921875 C14.03701776 22.61463789 14.02054778 25.30729188 14 28 C13.67 28 13.34 28 13 28 C13 21.07 13 14.14 13 7 C12.01 7 11.02 7 10 7 C9.67 5.35 9.34 3.7 9 2 C7.329375 2.061875 7.329375 2.061875 5.625 2.125 C2 2 2 2 0 0 Z " fill="#C6C6C8" transform="translate(530,228)"/>
<path d="M0 0 C1.9375 0.0625 1.9375 0.0625 4 1 C7 5.17857143 7 5.17857143 7 8 C6.34 8 5.68 8 5 8 C4.34 7.01 3.68 6.02 3 5 C0.69 5.66 -1.62 6.32 -4 7 C-2.92598892 4.08482708 -2.22189824 2.22189824 0 0 Z " fill="#797A7B" transform="translate(200,154)"/>
<path d="M0 0 C0.66 0 1.32 0 2 0 C2.74507544 6.37305598 3.10349817 12.58311325 3 19 C-0.02153065 15.97846935 0.03333349 13.06267172 -0.09765625 8.88671875 C-0.08605469 7.83097656 -0.07445312 6.77523437 -0.0625 5.6875 C-0.05347656 4.61886719 -0.04445312 3.55023438 -0.03515625 2.44921875 C-0.02355469 1.64097656 -0.01195312 0.83273438 0 0 Z " fill="#5F5F61" transform="translate(240,116)"/>
<path d="M0 0 C8.25 0 16.5 0 25 0 C25 0.33 25 0.66 25 1 C21.39841555 1.42227318 17.79384707 1.80823886 14.1875 2.1875 C13.16333984 2.30802734 12.13917969 2.42855469 11.08398438 2.55273438 C10.10107422 2.65263672 9.11816406 2.75253906 8.10546875 2.85546875 C7.19949951 2.95496826 6.29353027 3.05446777 5.36010742 3.15698242 C3 3 3 3 0 0 Z " fill="#676869" transform="translate(175,483)"/>
<path d="M0 0 C-4.625 4.875 -4.625 4.875 -8 6 C-8.33 7.98 -8.66 9.96 -9 12 C-10.35258028 8.9259539 -9.89891744 7.67428952 -8.875 4.375 C-7 1 -7 1 -4.4375 -0.5 C-2 -1 -2 -1 0 0 Z " fill="#7B7C7D" transform="translate(183,458)"/>
<path d="M0 0 C3 5.75 3 5.75 3 8 C2.34 8 1.68 8 1 8 C0.34 6.68 -0.32 5.36 -1 4 C-3.96175123 4.61277612 -5.38058783 5.25372522 -8 7 C-7.39816251 4.97954558 -6.72693904 2.97888961 -6 1 C-4 0 -4 0 0 0 Z " fill="#A2A2A4" transform="translate(348,154)"/>
<path d="M0 0 C0.33 0 0.66 0 1 0 C1.40613432 11.41688701 1.40613432 11.41688701 -1 16 C-3.625 17.375 -3.625 17.375 -6 18 C-6.99 16.68 -7.98 15.36 -9 14 C-8.236875 14.020625 -7.47375 14.04125 -6.6875 14.0625 C-3.89814214 14.12942841 -3.89814214 14.12942841 -1 13 C-0.67 8.71 -0.34 4.42 0 0 Z " fill="#C2C2C3" transform="translate(207,287)"/>
<path d="M0 0 C0.66 0 1.32 0 2 0 C2.04254356 1.99954746 2.04080783 4.00041636 2 6 C1 7 1 7 -2.81640625 7.09765625 C-4.39846682 7.09098089 -5.98051159 7.07901875 -7.5625 7.0625 C-8.36880859 7.05798828 -9.17511719 7.05347656 -10.00585938 7.04882812 C-12.00393756 7.03700518 -14.00197783 7.01906914 -16 7 C-16 6.67 -16 6.34 -16 6 C-8.08 5.505 -8.08 5.505 0 5 C0 3.35 0 1.7 0 0 Z " fill="#A0A1A3" transform="translate(244,197)"/>
<path d="M0 0 C0.75 1.75 0.75 1.75 1 4 C-0.8125 6.0625 -0.8125 6.0625 -3 8 C-3.99 9.485 -3.99 9.485 -5 11 C-5.66 11 -6.32 11 -7 11 C-5.5140084 6.40693504 -3.14985318 3.56430755 0 0 Z " fill="#797A7B" transform="translate(267,51)"/>
<path d="M0 0 C0.33 0.99 0.66 1.98 1 3 C-1.3125 6.1875 -1.3125 6.1875 -4 9 C-4.66 9 -5.32 9 -6 9 C-6 10.98 -6 12.96 -6 15 C-6.33 15 -6.66 15 -7 15 C-7.3125 11.8125 -7.3125 11.8125 -7 8 C-4.625 5.25 -4.625 5.25 -2 3 C-1.34 2.01 -0.68 1.02 0 0 Z " fill="#B6B6B7" transform="translate(246,107)"/>
<path d="M0 0 C4.83628305 0.99043705 9.47618873 1.95698846 14 4 C14 4.66 14 5.32 14 6 C8.93001981 5.34580901 4.58009223 3.1453591 0 1 C0 0.67 0 0.34 0 0 Z " fill="#949596" transform="translate(309,437)"/>
<path d="M0 0 C0.99 0.33 1.98 0.66 3 1 C3.33 1.99 3.66 2.98 4 4 C6.31 4.33 8.62 4.66 11 5 C10.67 5.66 10.34 6.32 10 7 C3.51020408 6.51020408 3.51020408 6.51020408 1.0625 4.0625 C0 2 0 2 0 0 Z " fill="#9A9B9C" transform="translate(3,256)"/>
<path d="M0 0 C3.48331435 3.01887244 4.79157144 5.56909529 6 10 C5.34 10 4.68 10 4 10 C3.67 8.35 3.34 6.7 3 5 C2.01 4.67 1.02 4.34 0 4 C0 2.68 0 1.36 0 0 Z " fill="#848486" transform="translate(284,57)"/>
</svg>
