<?xml version="1.0" encoding="UTF-8"?>
<svg version="1.1" xmlns="http://www.w3.org/2000/svg" width="690" height="689">
<path d="M0 0 C7.41851632 4.51705216 13.90553139 10.54123568 20.40087891 16.27490234 C23.3088638 18.83073919 26.25549083 21.34099153 29.19921875 23.85546875 C30.36341892 24.85400618 31.52748121 25.85270438 32.69140625 26.8515625 C35.04600262 28.87025749 37.40584196 30.88258639 39.76953125 32.890625 C46.48085264 38.60103856 53.06178189 44.4194737 59.53125 50.40234375 C62.35882431 53.00222174 65.23861537 55.53099555 68.140625 58.046875 C70.68878525 60.28558125 73.19332468 62.56957087 75.69921875 64.85546875 C78.84005431 67.7201869 81.99022631 70.56732777 85.19921875 73.35546875 C88.40821119 76.14360973 91.55838319 78.9907506 94.69921875 81.85546875 C98.48856001 85.31122288 102.31005573 88.72069765 106.1796875 92.0859375 C111.09658431 96.39416623 115.92560907 100.80233031 120.77734375 105.18359375 C124.52049484 108.55931897 128.26718347 111.9268431 132.07421875 115.23046875 C136.04018951 118.68262953 139.90439521 122.24297756 143.77246094 125.80371094 C147.20946295 128.9624484 150.68943196 132.06185211 154.21484375 135.12109375 C159.09283501 139.38453493 163.88782927 143.7449109 168.671875 148.11328125 C172.88252627 151.94357258 177.14256014 155.65716582 181.57421875 159.23046875 C185.58751917 162.4750243 189.4230316 165.84327407 193.19921875 169.35546875 C197.76981256 173.59645243 202.4447578 177.65372004 207.31640625 181.546875 C209.3504697 183.17577947 211.3469478 184.82200922 213.33203125 186.5078125 C225.37001464 196.56994049 238.86350611 203.46900557 253.51171875 208.98046875 C254.29377686 209.27598633 255.07583496 209.57150391 255.8815918 209.87597656 C260.07745081 211.37185578 263.69209534 212.46714978 268.19921875 211.85546875 C270.57362404 210.62771323 270.57362404 210.62771323 272.63671875 208.79296875 C273.40757812 208.15230469 274.1784375 207.51164063 274.97265625 206.8515625 C277.57417776 204.51932128 280.04294636 202.09552597 282.4765625 199.58984375 C285.55431168 196.4911575 288.88233668 193.69293593 292.19921875 190.85546875 C293.10027344 190.06527344 294.00132812 189.27507812 294.9296875 188.4609375 C343.00416236 146.63426769 343.00416236 146.63426769 363.82421875 144.48046875 C368.84027636 145.03780848 371.86357357 147.16870303 375.19921875 150.85546875 C378.3723581 149.72951608 381.18406998 148.30459213 384.07421875 146.60546875 C388.18507395 144.29870746 392.41379995 142.35469156 396.76171875 140.54296875 C397.37450684 140.27645508 397.98729492 140.00994141 398.61865234 139.73535156 C403.40194738 137.79758871 407.13027449 137.36318067 412.19921875 137.85546875 C414.47597763 141.27060707 414.30642362 142.70740566 413.68896484 146.65283203 C412.86226481 150.37092162 411.50256912 153.79653649 410.01171875 157.29296875 C409.70290771 158.03216553 409.39409668 158.7713623 409.07592773 159.53295898 C406.69785791 165.06435791 403.90670144 170.0887053 400.19921875 174.85546875 C400.63234375 175.31695312 401.06546875 175.7784375 401.51171875 176.25390625 C405.31345523 180.7068661 407.26014169 184.12929392 406.8203125 190.0625 C400.84972156 216.91138377 373.85326645 245.43436408 355.29296875 264.9921875 C354.62386475 265.69770752 353.95476074 266.40322754 353.26538086 267.13012695 C351.9717135 268.48621569 350.67090987 269.83554875 349.36157227 271.17651367 C342.22541256 278.047258 342.22541256 278.047258 339.19287109 286.98071289 C339.66467223 289.38156759 340.35558294 291.55851467 341.19921875 293.85546875 C341.50134277 294.70705566 341.8034668 295.55864258 342.11474609 296.43603516 C343.14774685 299.20697288 344.25082923 301.93765679 345.38671875 304.66796875 C345.99217529 306.12589844 345.99217529 306.12589844 346.60986328 307.61328125 C355.46459865 328.55348646 370.44303741 344.80618076 385.31640625 361.69140625 C386.83469565 363.43649406 388.33691934 365.19218808 389.83203125 366.95703125 C395.63295688 373.79449196 401.55717811 380.47476144 407.68725586 387.01928711 C411.01817892 390.5760013 414.27699902 394.17761115 417.4609375 397.8671875 C419.67178364 400.39599803 421.93518318 402.87419439 424.19921875 405.35546875 C427.63186636 409.11897396 431.01476885 412.91676226 434.35546875 416.76171875 C436.60798332 419.31965902 438.90238967 421.83725855 441.19921875 424.35546875 C444.63186636 428.11897396 448.01476885 431.91676226 451.35546875 435.76171875 C453.60798332 438.31965902 455.90238967 440.83725855 458.19921875 443.35546875 C461.65497288 447.14481001 465.06444765 450.96630573 468.4296875 454.8359375 C471.97498829 458.88211964 475.59380874 462.86290062 479.19921875 466.85546875 C483.9670885 472.13532451 488.71434093 477.42838681 493.38671875 482.79296875 C495.47133039 485.16511304 497.58350519 487.5110294 499.69921875 489.85546875 C504.53149151 495.21563686 509.29740731 500.62556449 513.984375 506.11328125 C514.73799316 506.9954834 514.73799316 506.9954834 515.50683594 507.89550781 C516.5559778 509.12375552 517.60480348 510.35227337 518.65332031 511.58105469 C521.63229287 515.06178806 524.66096505 518.4819378 527.76171875 521.85546875 C533.25504591 527.91501588 538.22391102 534.37037542 543.19921875 540.85546875 C543.86679199 541.72099365 543.86679199 541.72099365 544.54785156 542.60400391 C545.81220621 544.24616312 547.06972985 545.89326485 548.32421875 547.54296875 C549.04867187 548.49558594 549.773125 549.44820312 550.51953125 550.4296875 C553.86041271 555.25454188 553.79193662 560.183488 553.19921875 565.85546875 C552.23404555 569.09194629 550.86124847 571.92215139 549.19921875 574.85546875 C548.70808594 575.74685547 548.70808594 575.74685547 548.20703125 576.65625 C544.455893 582.61152423 538.72602162 586.6442113 533.19921875 590.85546875 C532.47347656 591.41878906 531.74773438 591.98210938 531 592.5625 C519.32497764 601.1772831 506.05299177 607.98904747 493.19921875 614.66796875 C492.55968262 615.01142334 491.92014648 615.35487793 491.26123047 615.70874023 C488.70180548 617.00293614 486.62931146 617.85068234 483.7421875 617.8828125 C479.92570525 616.34097712 476.81708051 614.0334626 473.51171875 611.60546875 C472.76986328 611.07115234 472.02800781 610.53683594 471.26367188 609.98632812 C468.90312747 608.28380282 466.55107482 606.5699694 464.19921875 604.85546875 C462.69334593 603.76604521 461.1868447 602.67748973 459.6796875 601.58984375 C457.42964484 599.96602576 455.1800733 598.34160103 452.93286133 596.71386719 C447.88107854 593.05667486 442.8008647 589.44271145 437.69921875 585.85546875 C431.06999163 581.19410126 424.49193338 576.46602444 417.9296875 571.7109375 C412.87839489 568.05551159 407.7996135 564.4420072 402.69921875 560.85546875 C393.04398412 554.06336405 383.48715943 547.13726662 373.92871094 540.20996094 C365.1877508 533.87718611 356.42301641 527.58356531 347.59350586 521.37475586 C341.66942767 517.20291801 335.796818 512.96233498 329.9296875 508.7109375 C324.87839489 505.05551159 319.7996135 501.4420072 314.69921875 497.85546875 C305.04398412 491.06336405 295.48715943 484.13726662 285.92871094 477.20996094 C277.88293102 471.38084014 269.82536903 465.57219759 261.69921875 459.85546875 C251.26716326 452.51654067 240.94257893 445.02993864 230.625 437.53125 C226.89751582 434.82354171 223.15723967 432.13420966 219.41162109 429.45166016 C217.15767153 427.8254935 214.92272151 426.17522008 212.6875 424.5234375 C211.2545395 423.48740482 209.8209713 422.45221202 208.38671875 421.41796875 C207.73493652 420.9266748 207.0831543 420.43538086 206.41162109 419.92919922 C204.37683772 418.41968701 204.37683772 418.41968701 201.19921875 416.85546875 C197.11014147 417.58523033 194.48837387 420.06353379 191.38671875 422.73046875 C186.96117897 426.4370793 182.4564509 429.97369585 177.82421875 433.41796875 C171.50006068 438.12621563 165.21417007 442.88119311 158.94921875 447.66796875 C151.99795527 452.97679298 145.0195659 458.24659596 138.01171875 463.48046875 C131.66341954 468.22294513 125.37432791 473.03089659 119.13671875 477.91796875 C112.29039434 483.28146259 105.33174829 488.46892011 98.31103516 493.60131836 C92.03658144 498.20262731 85.88545671 502.9467477 79.76000977 507.74389648 C74.28681794 512.02551445 68.75460462 516.21914807 63.18481445 520.37402344 C57.46607385 524.64329394 51.79384676 528.97154398 46.13256836 533.31665039 C41.51161432 536.86136021 36.86505819 540.37004946 32.19921875 543.85546875 C37.3834779 555.87352406 46.93834769 565.85469742 55.19921875 575.85546875 C56.65795502 577.64680737 58.11628391 579.4384778 59.57421875 581.23046875 C62.9263131 585.33137301 66.33078632 589.38320636 69.76171875 593.41796875 C73.58127825 597.91314554 77.32373043 602.45569517 80.984375 607.08203125 C82.70552662 609.23726521 84.44243721 611.37467351 86.1953125 613.50390625 C91.73067107 620.23721556 97.16706482 627.013823 102.32421875 634.04296875 C102.77321533 634.65422607 103.22221191 635.2654834 103.68481445 635.89526367 C110.15929286 644.81739559 110.15929286 644.81739559 110.32421875 649.10546875 C108.7414983 654.38120358 105.82164987 657.77845804 102.19921875 661.85546875 C101.64492187 662.49226562 101.090625 663.1290625 100.51953125 663.78515625 C91.67208863 673.26175034 77.45440894 685.88947011 64.19921875 687.73046875 C59.25253254 687.36587236 56.38381102 683.83173944 52.9921875 680.52734375 C50.09268435 677.75355332 47.05341057 675.24835876 43.88671875 672.79296875 C43.31300537 672.34743652 42.73929199 671.9019043 42.14819336 671.44287109 C40.88342907 670.46429435 39.61714771 669.4876762 38.34960938 668.51269531 C35.92334212 666.64286083 33.50714199 664.76031935 31.08984375 662.87890625 C22.73159437 656.40654346 14.46595752 650.13097308 5.35546875 644.75390625 C-6.55005734 637.59290912 -17.4032998 629.15481893 -28.06738281 620.28466797 C-30.36308232 618.39184756 -32.70607275 616.56203817 -35.05078125 614.73046875 C-49.236309 603.37254201 -61.23645875 590.33911009 -72.22753906 575.91748047 C-73.34748554 574.44959283 -74.47236866 572.98546607 -75.60058594 571.52392578 C-82.40060085 562.71031423 -88.98086379 553.96264933 -94.52441406 544.29931641 C-98.95516253 536.67685697 -104.39060508 529.79919696 -109.80078125 522.85546875 C-110.28369629 522.23220703 -110.76661133 521.60894531 -111.26416016 520.96679688 C-115.97480087 514.89166146 -120.7575974 508.87795528 -125.61328125 502.91796875 C-126.68642578 501.59345703 -126.68642578 501.59345703 -127.78125 500.2421875 C-129.72417902 497.87737206 -129.72417902 497.87737206 -131.7265625 495.9375 C-133.96359554 493.69018175 -135.57662521 492.01700458 -136.1875 488.8515625 C-135.68509267 474.07020995 -119.33648028 457.67354683 -109.21875 447.92578125 C-100.88160718 440.78735525 -100.88160718 440.78735525 -95.50390625 440.90625 C-91.55885744 442.29157783 -88.63657224 444.67139348 -85.36328125 447.23046875 C-84.30983521 448.03859009 -84.30983521 448.03859009 -83.23510742 448.86303711 C-81.08327292 450.51827578 -78.94159525 452.18601291 -76.80078125 453.85546875 C-75.56669615 454.80766751 -74.33233688 455.75951107 -73.09765625 456.7109375 C-66.82863683 461.5670117 -60.71498068 466.5751237 -54.69238281 471.73291016 C-50.82896574 475.02721528 -46.87501453 478.18164672 -42.86328125 481.29296875 C-38.05908718 485.02127901 -33.3933037 488.86950586 -28.80078125 492.85546875 C-17.97297125 502.23623024 -6.72465368 510.90622047 5.19921875 518.85546875 C7.81660269 518.66112751 8.88797827 518.1779788 10.71630859 516.28344727 C11.43101318 515.26915649 11.43101318 515.26915649 12.16015625 514.234375 C12.98060425 513.09174194 12.98060425 513.09174194 13.81762695 511.92602539 C14.39730225 511.0983667 14.97697754 510.27070801 15.57421875 509.41796875 C16.82335688 507.6768309 18.07471852 505.93728644 19.328125 504.19921875 C19.96766113 503.30976563 20.60719727 502.4203125 21.26611328 501.50390625 C24.25821999 497.40459157 27.37764874 493.40919835 30.51171875 489.41796875 C34.96663722 483.72786705 39.36661033 478.00688746 43.68359375 472.2109375 C47.02873232 467.73254219 50.43184786 463.29810802 53.82421875 458.85546875 C59.27521486 451.7141767 64.69253564 444.549134 70.07421875 437.35546875 C74.83777198 430.98960165 79.63592268 424.65575439 84.49609375 418.36328125 C93.99420432 406.05658959 103.36764843 393.65548725 112.66772461 381.19873047 C117.59366922 374.61901507 122.62320169 368.12429427 127.72119141 361.67700195 C130.46767566 358.1831391 133.03332604 354.75255035 135.19921875 350.85546875 C126.95632163 339.12233592 118.61373818 327.46600743 110.19921875 315.85546875 C103.31657416 306.35864462 96.46499935 296.84390365 89.71850586 287.24975586 C86.08461189 282.0895668 82.40243801 276.96608726 78.69921875 271.85546875 C74.49235951 266.04980315 70.32326603 260.22025156 66.19921875 254.35546875 C59.94488999 245.46470303 53.57806345 236.65713874 47.19921875 227.85546875 C40.31657416 218.35864462 33.46499935 208.84390365 26.71850586 199.24975586 C23.08461189 194.0895668 19.40243801 188.96608726 15.69921875 183.85546875 C11.49235951 178.04980315 7.32326603 172.22025156 3.19921875 166.35546875 C-3.05511001 157.46470303 -9.42193655 148.65713874 -15.80078125 139.85546875 C-22.68342584 130.35864462 -29.53500065 120.84390365 -36.28149414 111.24975586 C-39.91539522 106.0895567 -43.59822808 100.96657798 -47.30078125 95.85546875 C-48.91937533 93.61610428 -50.53714627 91.37614927 -52.15429688 89.13574219 C-53.27694528 87.58094739 -54.40068939 86.02694329 -55.52539062 84.47363281 C-57.20689099 82.1470823 -58.87980955 79.81458845 -60.55078125 77.48046875 C-61.06447266 76.77277344 -61.57816406 76.06507812 -62.10742188 75.3359375 C-62.57857422 74.67464844 -63.04972656 74.01335937 -63.53515625 73.33203125 C-63.94991211 72.75533691 -64.36466797 72.17864258 -64.79199219 71.58447266 C-65.97941336 69.54930403 -66.58556462 68.21773387 -66.80078125 65.85546875 C-65.7878418 63.17675781 -65.7878418 63.17675781 -64.1875 60.12109375 C-63.31182373 58.43487915 -63.31182373 58.43487915 -62.41845703 56.71459961 C-61.77597024 55.51107236 -61.13255994 54.30803771 -60.48828125 53.10546875 C-59.83948972 51.87713551 -59.1908902 50.64870084 -58.54248047 49.42016602 C-51.64105263 36.42553618 -44.33668374 24.1194933 -34.80078125 12.85546875 C-34.16785156 12.01757812 -33.53492187 11.1796875 -32.8828125 10.31640625 C-30.72562202 7.76663139 -28.61148244 6.05232858 -25.86328125 4.16796875 C-25.02925781 3.58660156 -24.19523437 3.00523437 -23.3359375 2.40625 C-16.21729733 -1.94829568 -7.89426445 -3.2259686 0 0 Z " fill="#000000" transform="translate(136.80078125,2.14453125)"/>
</svg>
